<svg version="1.1" id="Layer_1" xmlns="http://www.w3.org/2000/svg" xmlns:xlink="http://www.w3.org/1999/xlink" x="0px" y="0px"
              viewBox="0 0 434 358" style="enable-background:new 0 0 434 358;" xml:space="preserve">
                <style type="text/css">
                  .st0{opacity:0.1;fill:#68C9BA;enable-background:new    ;}
                  .st1{fill:none;stroke:#FFFFFF;stroke-width:1.5;}
                </style>
                <path class="st0" d="M44.3,41.7C48.3,17.6,69.2,0,93.6,0h289.7c27.6,0,50,22.4,50,50v258c0,27.6-22.4,50-50,50H50.4
                c-30.9,0-54.4-27.8-49.3-58.3L44.3,41.7z"/>
                <path class="st1" d="M381.8,95.1c25.7,29.2-4.6,57.4-58.1,58.1C217.4,146.2,193.4,52.1,201.4,31s32-21.7,67.4,21.3
                S349.6,58.6,381.8,95.1z"/>
                <ellipse transform="matrix(0.5275 -0.8495 0.8495 0.5275 79.3027 266.9697)" class="st1" cx="279.7" cy="62.2" rx="10" ry="16.8"/>
              </svg>